<?xml version="1.0" encoding="utf-8"?>
<!-- Apache Ignite Logo - Dark Mode Version -->
<svg version="1.1" id="Layer_1" xmlns="http://www.w3.org/2000/svg" xmlns:xlink="http://www.w3.org/1999/xlink" x="0px" y="0px"
	 viewBox="0 0 485.4 204" style="enable-background:new 0 0 485.4 204;" xml:space="preserve">
<style type="text/css">
	.st0{fill:#ED1C24;}
	.st1{fill:#FFFFFF;}
</style>
<g>
	<g>
		<g>
			<g>
				<g>
					<g>
						<g>
							<g>
								<path class="st1" d="M222,160.3v-5.6c-3.9,6.1-9.2,10-15.9,11.5c-6.7,1.5-13.3,1-19.8-1.6c-6.6-2.6-12.2-7.5-16.9-14.6
									c-4.7-7.1-7.1-16.4-7.1-28c0-13.6,3.1-24.5,9.3-33c6.2-8.4,16.2-12.6,30-12.6c10.5,0,20.2,2.8,29.2,8.5
									c9,5.7,13.4,16.2,13.4,31.5v46.2c0,15.3-4.5,25.7-13.4,31.3c-9,5.6-18.7,8.4-29.2,8.4c-20.1,0-32.6-9.4-37.4-28.2h23.9
									c1.7,3.1,4.4,5.4,8,7.1c3.6,1.6,7.2,2.1,10.8,1.3c3.6-0.8,6.9-2.9,9.8-6.4C219.8,172.5,221.5,167.3,222,160.3z M184.6,122.6
									c0,15.1,4.4,23.5,13.1,25.1c8.7,1.6,15.2-0.4,19.3-6.1c2-2.4,3.4-6.2,4.3-11.3c0.9-5.1,0.9-10.2,0.2-15.3
									c-0.8-5-2.6-9.5-5.4-13.4c-2.8-3.9-7-5.9-12.5-5.9c-7.4,0-12.5,2.7-15.1,8.2C185.9,109.3,184.6,115.6,184.6,122.6z"/>
								<path class="st1" d="M324.3,165.5h-11.5c-3.3,0-6-1-8-3.1c-2.1-2.1-3.1-4.8-3.1-8v-44.6c0-5.2-1.6-9.1-4.8-11.5
									c-3.2-2.4-6.7-3.6-10.7-3.6c-3.9,0-7.4,1.2-10.5,3.6c-3.1,2.4-4.6,6.2-4.6,11.5v55.8h-23v-51.2c0-14.9,3.9-24.8,11.6-29.8
									c7.8-5,16.3-7.8,25.7-8.2c9.6,0,18.5,2.5,26.6,7.5c8.1,5,12.1,15.2,12.1,30.5V165.5z"/>
								<path class="st1" d="M329.9,85.9h23c0,12.2,0,8.1,0,11.2v68.5h-23V85.9z"/>
								<path class="st1" d="M395.1,165.5c-7.2,0.4-15,0.3-23.4-0.3c-8.4-0.7-12.6-6-12.6-16.1V63.8h11.8c2.8,0,5.4,1.1,7.5,3.3
									c2.2,2.2,3.3,4.8,3.3,7.9V78h13.4v4.6c0,3.3-1.1,6-3.3,8c-2.2,2.1-4.8,3.1-7.9,3.1h-2.3v49.1c0,3.7,2.2,5.6,6.6,5.6h6.9
									V165.5z"/>
								<path class="st1" d="M457.7,138.6h16.4c-2.4,9.2-7,16.2-13.8,21c-6.8,5-15.3,7.5-25.6,7.5c-12.5,0-22.2-4-29.2-12.1
									c-7-7.9-10.5-19.1-10.5-33.8c0-14,3.4-24.9,10.2-32.8c7-8.1,16.7-12.1,29.2-12.1c13.1,0,23.3,3.9,30.5,11.8
									c7,8.1,10.5,19.3,10.5,33.8c0,0.9,0,1.6,0,2.3c0,0.7,0,1.1,0,1.3c0,1.1-0.1,1.9-0.3,2.3h-56.7c0.2,6.8,1.9,11.8,4.9,15.1
									c2.8,3.5,7.1,5.2,12.8,5.2c3.7,0,6.9-0.8,9.5-2.3c0.7-0.2,1.3-0.6,1.8-1.2c0.5-0.5,1.1-1.1,1.8-1.8c0.2-0.7,1-1.5,2.5-2.6
									C453.1,139.2,455.1,138.6,457.7,138.6z M418.4,113.1h33.5c-0.4-5.9-2-10.3-4.6-13.1c-2.8-3.1-6.9-4.6-12.1-4.6
									c-4.8,0-8.7,1.5-11.8,4.6C420.2,103,418.6,107.4,418.4,113.1z"/>
							</g>
							<path class="st1" d="M134.4,45.8h11.8c3.1,0,5.7,1.1,7.9,3.3c2.2,2.2,3.3,4.8,3.3,7.9v108.6h-23V45.8z"/>
							<path class="st1" d="M329.9,63.8h11.8c3.1,0,5.7,1.1,7.9,3.3c2.2,2.2,3.3,4.8,3.3,7.9v6.9h-23V63.8z"/>
						</g>
						<g>
							<path class="st1" d="M192.5,65h-3.6v-2.6c-1.8,2-4.3,3-7.4,3c-2.9,0-5.4-1-7.5-2.9c-2.2-2.1-3.3-4.7-3.3-7.9c0-3.3,1.2-6,3.5-8.1
								c2.1-2,4.7-2.9,7.6-2.9c3,0,5.4,1,7.2,3.1v-2.6h3.6V65z M188.8,54.6c0-2-0.7-3.7-2-5.2c-1.4-1.4-3-2.1-5-2.1
								c-2.1,0-3.8,0.7-5.3,2.2c-1.4,1.4-2.1,2.9-2.1,4.5c0,2.1,0.6,3.9,1.9,5.4c1.3,1.6,3,2.3,5.1,2.3c2,0,3.7-0.7,5.2-2.1
								C188.1,58.3,188.8,56.6,188.8,54.6z"/>
							<path class="st1" d="M218.5,54c0,3.3-1,6-3,8.1c-2.1,2.2-4.7,3.3-8,3.3c-3,0-5.3-1-7.1-2.9v9.4h-3.8V44h3.6v2.5c0.9-1,2-1.7,3.1-2.2
								c1.2-0.5,2.4-0.7,3.8-0.7c2.9,0,5.5,1,7.7,2.9C217.3,48.5,218.5,51,218.5,54z M214.6,54.5c0-2-0.7-3.7-2.1-5.1
								c-1.4-1.4-3.2-2.1-5.2-2.1c-2.1,0-3.8,0.8-5.2,2.3c-1.3,1.4-1.9,3.1-1.9,5c0,1.8,0.5,3.3,1.6,4.7c1.3,1.6,3.2,2.4,5.7,2.4
								c2,0,3.7-0.7,5.1-2.1C214,58.3,214.6,56.6,214.6,54.5z"/>
							<path class="st1" d="M243.6,65H240v-2.6c-1.8,2-4.3,3-7.4,3c-2.9,0-5.4-1-7.5-2.9c-2.2-2.1-3.3-4.7-3.3-7.9c0-3.3,1.2-6,3.5-8.1
								c2.1-2,4.7-2.9,7.6-2.9c3,0,5.4,1,7.2,3.1v-2.6h3.6V65z M240,54.6c0-2-0.7-3.7-2-5.2c-1.4-1.4-3-2.1-5-2.1
								c-2.1,0-3.8,0.7-5.3,2.2c-1.4,1.4-2.1,2.9-2.1,4.5c0,2.1,0.6,3.9,1.9,5.4c1.3,1.6,3,2.3,5.1,2.3c2,0,3.7-0.7,5.2-2.1
								C239.2,58.3,240,56.6,240,54.6z"/>
							<path class="st1" d="M268.7,58.1c-1.2,2.4-2.6,4.2-4.2,5.4c-1.8,1.3-3.9,2-6.5,2c-2.9,0-5.5-1-7.7-3.1c-2.3-2.2-3.5-4.8-3.5-8h0.2
								c0,0,0,0.1-0.1,0.2c0-3.3,1.1-6,3.4-8.1c2-1.9,4.4-2.9,7.2-2.9c2.6,0,4.8,0.7,6.8,2c1.9,1.3,3.4,3.2,4.3,5.6h-4.2
								c-1.4-2.5-3.7-3.8-6.8-3.8c-2,0-3.6,0.7-4.9,2.1c-1.3,1.4-2,3.1-2,5.1c0,2,0.7,3.8,2.1,5.2c1.4,1.4,3.1,2.1,5.1,2.1
								c1.3,0,2.6-0.3,3.8-1c1.2-0.7,2.1-1.6,2.8-2.7H268.7z"/>
							<path class="st1" d="M290.4,65h-3.8V53c0-1.6-0.5-3-1.6-4c-1-1-2.4-1.6-4-1.6c-1.6,0-2.9,0.5-3.9,1.4c-1,1-1.5,2.2-1.5,3.8V65h-3.8V37.1
								h3.8v8.7c1.5-1.5,3.3-2.2,5.5-2.2c2.4,0,4.5,0.8,6.3,2.5c1.9,1.8,2.9,4.1,2.9,6.9V65z"/>
							<path class="st1" d="M315.2,56h-17.7c0.3,1.8,1.2,3.2,2.6,4.3c1.3,0.9,2.7,1.4,4.2,1.4c1.4,0,2.7-0.4,4-1.2c1.3-0.8,2.2-1.9,2.7-3.2h3.9
								c-1,2.8-2.6,4.8-4.7,6.2c-1.8,1.2-3.8,1.8-6,1.8c-2.8,0-5.2-1-7.2-3c-2.1-2.2-3.2-4.8-3.2-8c0-3.3,1.1-6,3.4-8
								c2.1-1.9,4.5-2.8,7.3-2.8c2.8,0,5.3,0.9,7.3,2.8c2.3,2.1,3.5,5,3.5,8.6V56z M311.3,52.5c-0.4-1.6-1.3-2.8-2.6-3.8
								c-1.3-1-2.7-1.5-4.3-1.5c-2,0-3.7,0.7-5,2c-0.9,0.9-1.6,2-1.9,3.3H311.3z"/>
						</g>
						<g>
							<path class="st0" d="M34.6,35.7c0,0-69.5,42.4-4,84.5c12.6,8.2,58.3,31,57,52.1c0,0,27.7-41-12.8-66.8
								C33.2,79.1,22.8,50.9,34.6,35.7z"/>
							<path class="st0" d="M10.4,116.7c0,0-24.8,37.6,24,45.3c4.8,0.6,40.1,4.3,49.3,15.9c0,0-0.8-20-29.6-31.8
								C25.4,134.3,13.6,131.4,10.4,116.7z"/>
							<path class="st0" d="M106.4,77.2C76.6,46,68.3,26.7,81.1,1.7c0,0-88.9,34.2-1.1,94.9c31.4,21.7,26.2,43.9,26.2,44.7
								C111.1,136.2,136.2,108.4,106.4,77.2z"/>
						</g>
					</g>
				</g>
			</g>
		</g>
		<g>
			<path class="st1" d="M482.9,76.3c0,4.1-3.2,7.3-7.4,7.3c-4.2,0-7.5-3.2-7.5-7.3c0-4,3.3-7.2,7.5-7.2C479.7,69,482.9,72.3,482.9,76.3z
				 M469.9,76.3c0,3.2,2.4,5.8,5.7,5.8c3.2,0,5.5-2.6,5.5-5.7c0-3.2-2.3-5.8-5.6-5.8C472.2,70.5,469.9,73.1,469.9,76.3z M474.3,80.1
				h-1.7v-7.2c0.7-0.1,1.6-0.2,2.8-0.2c1.4,0,2,0.2,2.5,0.5c0.4,0.3,0.7,0.9,0.7,1.6c0,0.8-0.6,1.4-1.5,1.7v0.1
				c0.7,0.3,1.1,0.8,1.3,1.8c0.2,1.1,0.4,1.5,0.5,1.8h-1.8c-0.2-0.3-0.4-0.9-0.6-1.8c-0.1-0.8-0.6-1.1-1.5-1.1h-0.8V80.1z M474.4,76
				h0.8c0.9,0,1.7-0.3,1.7-1.1c0-0.7-0.5-1.1-1.5-1.1c-0.4,0-0.8,0-0.9,0.1V76z"/>
		</g>
	</g>
</g>
</svg>
