<svg class="railroad-diagram" width="1330" height="122" viewBox="0 0 1330 122" xmlns="http://www.w3.org/2000/svg" xmlns:xlink="http://www.w3.org/1999/xlink">
    <g transform="translate(.5 .5)">
        <g>
            <path d="M20 51v20m10 -20v20m-10 -10h20"></path>
        </g>
        <path d="M40 61h10"></path>
        <g>
            <path d="M50 61h0"></path>
            <path d="M1280 61h0"></path>
            <g class="terminal ">
                <path d="M50 61h0"></path>
                <path d="M121 61h0"></path>
                <rect x="50" y="50" width="71" height="22" rx="10" ry="10"></rect>
                <text x="85.5" y="65">CREATE</text>
            </g>
            <path d="M121 61h10"></path>
            <path d="M131 61h10"></path>
            <g class="terminal ">
                <path d="M141 61h0"></path>
                <path d="M203.5 61h0"></path>
                <rect x="141" y="50" width="62.5" height="22" rx="10" ry="10"></rect>
                <text x="172.25" y="65">TABLE</text>
            </g>
            <path d="M203.5 61h10"></path>
            <g>
                <path d="M213.5 61h0"></path>
                <path d="M384 61h0"></path>
                <path d="M213.5 61a10 10 0 0 0 10 -10v0a10 10 0 0 1 10 -10"></path>
                <g>
                    <path d="M233.5 41h130.5"></path>
                </g>
                <path d="M364 41a10 10 0 0 1 10 10v0a10 10 0 0 0 10 10"></path>
                <path d="M213.5 61h20"></path>
                <g class="terminal ">
                    <path d="M233.5 61h0"></path>
                    <path d="M364 61h0"></path>
                    <rect x="233.5" y="50" width="130.5" height="22" rx="10" ry="10"></rect>
                    <text x="298.75" y="65">IF NOT EXISTS</text>
                </g>
                <path d="M364 61h20"></path>
            </g>
            <path d="M384 61h10"></path>
            <g class="non-terminal ">
                <path d="M394 61h0"></path>
                <path d="M499 61h0"></path>
                <rect x="394" y="50" width="105" height="22"></rect>
                <text x="446.5" y="65">table&#95;name</text>
            </g>
            <path d="M499 61h10"></path>
            <path d="M509 61h10"></path>
            <g class="terminal ">
                <path d="M519 61h0"></path>
                <path d="M547.5 61h0"></path>
                <rect x="519" y="50" width="28.5" height="22" rx="10" ry="10"></rect>
                <text x="533.25" y="65">(</text>
            </g>
            <path d="M547.5 61h10"></path>
            <path d="M557.5 61h10"></path>
            <g>
                <path d="M567.5 61h0"></path>
                <path d="M800.5 61h0"></path>
                <path d="M567.5 61h10"></path>
                <g>
                    <path d="M577.5 61h0"></path>
                    <path d="M790.5 61h0"></path>
                    <path d="M577.5 61a10 10 0 0 0 10 -10v-10a10 10 0 0 1 10 -10"></path>
                    <g class="non-terminal ">
                        <path d="M597.5 31h21.25"></path>
                        <path d="M749.25 31h21.25"></path>
                        <rect x="618.75" y="20" width="130.5" height="22"></rect>
                        <text x="684" y="35">pk&#95;constraint</text>
                    </g>
                    <path d="M770.5 31a10 10 0 0 1 10 10v10a10 10 0 0 0 10 10"></path>
                    <path d="M577.5 61h20"></path>
                    <g class="non-terminal ">
                        <path d="M597.5 61h0"></path>
                        <path d="M770.5 61h0"></path>
                        <rect x="597.5" y="50" width="173" height="22"></rect>
                        <text x="684" y="65">columns&#95;definition</text>
                    </g>
                    <path d="M770.5 61h20"></path>
                </g>
                <path d="M790.5 61h10"></path>
                <path d="M577.5 61a10 10 0 0 0 -10 10v10a10 10 0 0 0 10 10"></path>
                <g class="terminal ">
                    <path d="M577.5 91h92.25"></path>
                    <path d="M698.25 91h92.25"></path>
                    <rect x="669.75" y="80" width="28.5" height="22" rx="10" ry="10"></rect>
                    <text x="684" y="95">,</text>
                </g>
                <path d="M790.5 91a10 10 0 0 0 10 -10v-10a10 10 0 0 0 -10 -10"></path>
            </g>
            <path d="M800.5 61h10"></path>
            <path d="M810.5 61h10"></path>
            <g class="terminal ">
                <path d="M820.5 61h0"></path>
                <path d="M849 61h0"></path>
                <rect x="820.5" y="50" width="28.5" height="22" rx="10" ry="10"></rect>
                <text x="834.75" y="65">)</text>
            </g>
            <path d="M849 61h10"></path>
            <g>
                <path d="M859 61h0"></path>
                <path d="M1280 61h0"></path>
                <path d="M859 61a10 10 0 0 0 10 -10v0a10 10 0 0 1 10 -10"></path>
                <g>
                    <path d="M879 41h381"></path>
                </g>
                <path d="M1260 41a10 10 0 0 1 10 10v0a10 10 0 0 0 10 10"></path>
                <path d="M859 61h20"></path>
                <g>
                    <path d="M879 61h0"></path>
                    <path d="M1260 61h0"></path>
                    <g class="terminal ">
                        <path d="M879 61h0"></path>
                        <path d="M933 61h0"></path>
                        <rect x="879" y="50" width="54" height="22" rx="10" ry="10"></rect>
                        <text x="906" y="65">WITH</text>
                    </g>
                    <path d="M933 61h10"></path>
                    <path d="M943 61h10"></path>
                    <g>
                        <path d="M953 61h0"></path>
                        <path d="M1260 61h0"></path>
                        <path d="M953 61h10"></path>
                        <g>
                            <path d="M963 61h0"></path>
                            <path d="M1250 61h0"></path>
                            <g class="non-terminal ">
                                <path d="M963 61h0"></path>
                                <path d="M1068 61h0"></path>
                                <rect x="963" y="50" width="105" height="22"></rect>
                                <text x="1015.5" y="65">param&#95;name</text>
                            </g>
                            <path d="M1068 61h10"></path>
                            <path d="M1078 61h10"></path>
                            <g class="terminal ">
                                <path d="M1088 61h0"></path>
                                <path d="M1116.5 61h0"></path>
                                <rect x="1088" y="50" width="28.5" height="22" rx="10" ry="10"></rect>
                                <text x="1102.25" y="65">=</text>
                            </g>
                            <path d="M1116.5 61h10"></path>
                            <path d="M1126.5 61h10"></path>
                            <g class="non-terminal ">
                                <path d="M1136.5 61h0"></path>
                                <path d="M1250 61h0"></path>
                                <rect x="1136.5" y="50" width="113.5" height="22"></rect>
                                <text x="1193.25" y="65">param&#95;value</text>
                            </g>
                        </g>
                        <path d="M1250 61h10"></path>
                        <path d="M963 61a10 10 0 0 0 -10 10v10a10 10 0 0 0 10 10"></path>
                        <g class="terminal ">
                            <path d="M963 91h129.25"></path>
                            <path d="M1120.75 91h129.25"></path>
                            <rect x="1092.25" y="80" width="28.5" height="22" rx="10" ry="10"></rect>
                            <text x="1106.5" y="95">,</text>
                        </g>
                        <path d="M1250 91a10 10 0 0 0 10 -10v-10a10 10 0 0 0 -10 -10"></path>
                    </g>
                </g>
                <path d="M1260 61h20"></path>
            </g>
        </g>
        <path d="M1280 61h10"></path>
        <path d="M 1290 61 h 20 m -10 -10 v 20 m 10 -20 v 20"></path>
    </g>
    <style>
        svg {
        background-color: hsl(30,20%,95%);
        }
        path {
        stroke-width: 3;
        stroke: black;
        fill: rgba(0,0,0,0);
        }
        text {
        font: bold 14px monospace;
        text-anchor: middle;
        white-space: pre;
        }
        text.diagram-text {
        font-size: 12px;
        }
        text.diagram-arrow {
        font-size: 16px;
        }
        text.label {
        text-anchor: start;
        }
        text.comment {
        font: italic 12px monospace;
        }
        g.non-terminal text {
        /&#42;font-style: italic;&#42;/
        }
        rect {
        stroke-width: 3;
        stroke: black;
        fill: hsl(120,100%,90%);
        }
        rect.group-box {
        stroke: gray;
        stroke-dasharray: 10 5;
        fill: none;
        }
        path.diagram-text {
        stroke-width: 3;
        stroke: black;
        fill: white;
        cursor: help;
        }
        g.diagram-text:hover path.diagram-text {
        fill: #eee;
        }</style>
</svg>
